# xmcd
#
# Track frame offsets:
#	150
#	15105
#	30432
#	45332
#	60530
#	76345
#	89167
#	103652
#	119130
#	133000
#	146655
#	158502
#	170915
#	184452
#	198065
#	207367
#
# Disc length: 2925 seconds
#
# Revision: 4
# Processed by: cddbd v1.4PL0 Copyright (c) Steve Scherf et al.
# Submitted via: EasyCDDAExtractor 4.6.9.1
#
DISCID=d90b6b10
DTITLE=Sarah Vaughan - 16 Most Requested Songs
DYEAR=1900
DGENRE=Blues
TTITLE0=Black Coffee
TTITLE1=That Lucky Old Sun
TTITLE2=Summertime
TTITLE3=The Nearness Of You
TTITLE4=Goodnight My Love
TTITLE5=Can't Get Out Of This Mood
TTITLE6=It Might As Well Be Spring
TTITLE7=Come Rain Or Come Shine
TTITLE8=Thinking Of You
TTITLE9=These Things I Offer You
TTITLE10=Vanity
TTITLE11=Pinky
TTITLE12=Sinner Or Saint
TTITLE13=My Tormented Heart
TTITLE14=Linger A While
TTITLE15=Will Be A Little Late This Year
EXTD=
EXTT0=
EXTT1=
EXTT2=
EXTT3=
EXTT4=
EXTT5=
EXTT6=
EXTT7=
EXTT8=
EXTT9=
EXTT10=
EXTT11=
EXTT12=
EXTT13=
EXTT14=
EXTT15=
PLAYORDER=
